<svg width="96" height="96" xmlns="http://www.w3.org/2000/svg">

 <g>
  <title>background</title>
  <rect fill="none" id="canvas_background" height="402" width="582" y="-1" x="-1"/>
 </g>
 <g>
  <title>Layer 1</title>
  <path fill="#ffffff" id="svg_1" d="m90.829,85.171l-22.708,-22.707c4.926,-6.157 7.879,-13.964 7.879,-22.464c0,-19.882 -16.118,-36 -36,-36c-19.882,0 -36,16.118 -36,36s16.118,36 36,36c8.5,0 16.306,-2.953 22.464,-7.879l22.708,22.708c1.562,1.562 4.095,1.562 5.657,0c1.562,-1.562 1.562,-4.096 0,-5.658zm-50.829,-17.171c-15.464,0 -28,-12.536 -28,-28s12.536,-28 28,-28c15.464,0 28,12.536 28,28s-12.536,28 -28,28z"/>
  <path fill="#ffffff" id="svg_2" d="m52,36l-8,0l0,-8c0,-2.209 -1.791,-4 -4,-4s-4,1.791 -4,4l0,8l-8,0c-2.209,0 -4,1.791 -4,4s1.791,4 4,4l8,0l0,8c0,2.209 1.791,4 4,4s4,-1.791 4,-4l0,-8l8,0c2.209,0 4,-1.791 4,-4s-1.791,-4 -4,-4z"/>
 </g>
</svg>